<svg width="512" height="512" viewBox="-80 -84 672 680" fill="none" xmlns="http://www.w3.org/2000/svg">
<rect x="-80" y="-84" width="672" height="680" rx="104" fill="#f1ede3"/>
<g clip-path="url(#clip0_58_33)">
<path d="M256 4L259.375 3.07458L256.012 -9.19316L252.626 3.0684L256 4ZM116 511L112.626 510.068L111.403 514.5H116L116 511ZM395 511V514.5H399.589L398.375 510.074L395 511ZM164.538 331.724C162.605 331.724 161.038 333.291 161.038 335.224C161.038 337.157 162.605 338.724 164.538 338.724V335.224V331.724ZM346.809 338.724C348.742 338.724 350.309 337.157 350.309 335.224C350.309 333.291 348.742 331.724 346.809 331.724V335.224V338.724ZM218.028 138.012C216.095 138.012 214.528 139.579 214.528 141.512C214.528 143.445 216.095 145.012 218.028 145.012V141.512V138.012ZM293.7 145.012C295.633 145.012 297.2 143.445 297.2 141.512C297.2 139.579 295.633 138.012 293.7 138.012V141.512V145.012ZM182.96 511L182.96 514.5H185.027L186.025 512.69L182.96 511ZM328.04 511L324.975 512.69L325.973 514.5H328.04V511ZM256 4L252.626 3.0684L112.626 510.068L116 511L119.374 511.932L259.374 4.9316L256 4ZM256 4L252.625 4.92542L391.625 511.925L395 511L398.375 510.074L259.375 3.07458L256 4ZM143.075 412.948V416.448H368.118V412.948V409.448H143.075V412.948ZM164.538 335.224V338.724H346.809V335.224V331.724H164.538V335.224ZM218.028 141.512V145.012H293.7V141.512V138.012H218.028V141.512ZM256 4L252.536 3.50093L179.496 510.501L182.96 511L186.424 511.499L259.464 4.49907L256 4ZM256 4L252.535 4.49237L324.575 511.492L328.04 511L331.505 510.508L259.465 3.50763L256 4ZM182.96 511L186.025 512.69C204.984 478.313 230.592 461.887 255.5 461.887C280.408 461.887 306.016 478.313 324.975 512.69L328.04 511L331.105 509.31C311.376 473.536 283.788 454.887 255.5 454.887C227.212 454.887 199.624 473.536 179.895 509.31L182.96 511ZM116 511L116 514.5L182.96 514.5L182.96 511L182.96 507.5L116 507.5L116 511ZM328.04 511V514.5H395V511V507.5H328.04V511Z" fill="black"/>
</g>
<defs>
<clipPath id="clip0_58_33">
<rect width="512" height="512" fill="white"/>
</clipPath>
</defs>
</svg>
